<?xml version="1.0" encoding="UTF-8"?>
<!-- Simple custom green Q icon (not official QuickBooks trademark) -->
<svg width="512" height="512" viewBox="0 0 512 512" xmlns="http://www.w3.org/2000/svg" role="img" aria-labelledby="title desc">
  <title id="title">Accounting Q Icon</title>
  <desc id="desc">Custom green circular icon with letter Q for accounting branding.</desc>
  <defs>
    <linearGradient id="g" x1="0" y1="0" x2="1" y2="1">
      <stop offset="0%" stop-color="#0b7d2b"/>
      <stop offset="100%" stop-color="#34a853"/>
    </linearGradient>
    <filter id="shadow" x="-20%" y="-20%" width="140%" height="140%">
      <feDropShadow dx="0" dy="4" stdDeviation="12" flood-color="#084d1a" flood-opacity="0.35" />
    </filter>
  </defs>
  <circle cx="256" cy="256" r="230" fill="url(#g)" filter="url(#shadow)" />
  <circle cx="256" cy="256" r="205" fill="none" stroke="#ffffff" stroke-width="26" stroke-opacity="0.35" />
  <path d="M256 140c-69 0-116 45-116 114 0 72 53 118 121 118 21 0 39-3 56-11l29 31c6 6 13 9 20 9 11 0 20-8 20-19 0-6-3-13-8-19l-27-29c18-21 29-49 29-80 0-69-55-114-124-114zm1 54c40 0 66 26 66 61 0 17-5 33-14 45l-20-22c3-6 5-13 5-21 0-26-19-45-45-45-25 0-44 19-44 45 0 27 20 46 47 46 5 0 10-1 14-2l20 22c-10 5-23 8-38 8-43 0-70-29-70-70 0-40 29-67 79-67z" fill="#ffffff" />
</svg>
